<svg width="856" height="864" viewBox="0 0 856 864" fill="none" xmlns="http://www.w3.org/2000/svg">
<path fill-rule="evenodd" clip-rule="evenodd" d="M440.84 294.437C556.27 402.142 667.352 528.471 662.231 686.518C656.663 858.323 575.851 1050.63 414.408 1110.1C266.301 1164.66 152.257 980.567 3.32108 929.239C-147.012 877.429 -359.911 956.519 -436.073 816.998C-515.027 672.361 -399.699 500.064 -304.787 364.812C-217.18 239.971 -97.813 133.163 53.8507 118.848C202.437 104.824 331.916 192.801 440.84 294.437Z" fill="#9EACD5" fill-opacity="0.12"/>
<path fill-rule="evenodd" clip-rule="evenodd" d="M339.534 -451.345C454.682 -468.695 527.855 -350.457 579.977 -246.325C631.098 -144.192 678.365 -17.0722 597.043 63.1229C516.286 142.762 388.558 95.906 290.187 39.451C208.539 -7.40658 157.003 -90.3442 166.42 -184.01C178.162 -300.793 223.473 -433.857 339.534 -451.345Z" fill="#9EACD5" fill-opacity="0.12"/>
<g clip-path="url(#clip0_152_9940)">
<path d="M140.212 703.819H98.9917V721.238H140.212V703.819Z" fill="#EBEBEB"/>
<path d="M117.22 725.784H76V743.202H117.22V725.784Z" fill="#EBEBEB"/>
<path d="M163.203 725.784H121.983V743.202H163.203V725.784Z" fill="#EBEBEB"/>
<path d="M678.903 238.244H637.683V255.662H678.903V238.244Z" fill="#EBEBEB"/>
<path d="M701.895 260.208H660.675V277.626H701.895V260.208Z" fill="#EBEBEB"/>
<path d="M117.22 238.275H76V255.694H117.22V238.275Z" fill="#EBEBEB"/>
<path d="M638 800.419H679.22V783H638V800.419Z" fill="#EBEBEB"/>
<path d="M562.264 520.4H603.483V502.982H562.264V520.4Z" fill="#EBEBEB"/>
<path d="M585.255 498.436H626.475V481.017H585.255V498.436Z" fill="#EBEBEB"/>
<path d="M16.5814 625.337H54.748V865.1H16.5814V625.337Z" fill="#E6E6E6" fill-opacity="0.75"/>
<path d="M26.6213 865.1H16.5815V846.627H37.1401L26.6213 865.1Z" fill="#FAFAFA" fill-opacity="0.75"/>
<path d="M368.474 625.337H406.641V865.1H368.474V625.337Z" fill="#E6E6E6" fill-opacity="0.75"/>
<path d="M16.5813 625.337H377.23V860.117H16.5813V625.337Z" fill="#FAFAFA" fill-opacity="0.75"/>
<path d="M23.4025 701.095H370.39V634.785H23.4025V701.095ZM368.474 699.171H25.3185V636.709H368.474V699.171Z" fill="#E6E6E6" fill-opacity="0.75"/>
<path d="M84.4844 666.978H302.563C312.699 666.978 322.452 658.781 329.311 644.464L329.981 643.079H57.0856L57.7562 644.464C64.6155 658.761 74.3679 666.978 84.5035 666.978H84.4844ZM326.916 645.022C320.44 657.78 311.626 665.054 302.583 665.054H84.5035C75.46 665.054 66.6464 657.78 60.1512 645.022H326.916Z" fill="#E6E6E6" fill-opacity="0.75"/>
<path d="M367.19 865.1H377.23V846.627H356.671L367.19 865.1Z" fill="#FAFAFA" fill-opacity="0.75"/>
<path d="M23.4025 775.872H370.39V709.562H23.4025V775.872ZM368.474 773.948H25.3185V711.486H368.474V773.948Z" fill="#E6E6E6" fill-opacity="0.75"/>
<path d="M84.4844 741.755H302.563C312.699 741.755 322.452 733.558 329.311 719.241L329.981 717.856H57.0856L57.7562 719.241C64.6155 733.538 74.3679 741.755 84.5035 741.755H84.4844ZM326.916 719.799C320.44 732.557 311.626 739.831 302.583 739.831H84.5035C75.46 739.831 66.6464 732.557 60.1512 719.799H326.916Z" fill="#E6E6E6" fill-opacity="0.75"/>
<path d="M23.4025 850.668H370.39V784.358H23.4025V850.668ZM368.474 848.744H25.3185V786.282H368.474V848.744Z" fill="#E6E6E6" fill-opacity="0.75"/>
<path d="M84.4844 816.551H302.563C312.699 816.551 322.452 808.354 329.311 794.037L329.981 792.652H57.0856L57.7562 794.037C64.6155 808.334 74.3679 816.551 84.5035 816.551H84.4844ZM326.916 794.595C320.44 807.353 311.626 814.627 302.583 814.627H84.5035C75.46 814.627 66.6464 807.353 60.1512 794.595H326.916Z" fill="#E6E6E6" fill-opacity="0.75"/>
<path d="M34.8317 684.157C36.1495 693.271 35.678 702.555 33.4436 711.488C32.3969 715.626 30.9976 719.667 29.261 723.567C27.0796 728.579 24.8081 733.446 25.3669 738.927C25.8898 739.269 24.0869 739.215 24.0148 738.693C9.39398 730.364 -9.35533 728.831 -20.6049 715.256C-25.6739 708.622 -28.8791 700.755 -29.8894 692.468C-31.2776 683.562 -31.6923 673.719 -29.3666 664.957C-27.4376 657.602 -23.0928 650.39 -16.0438 646.785C-8.99476 643.179 0.578222 643.359 8.15006 645.703C24.3934 650.733 32.5241 668.419 34.8317 684.157Z" fill="url(#paint0_linear_152_9940)"/>
<path d="M42.3313 792.38C40.3482 785.734 38.335 779.094 36.2918 772.459C32.2896 759.461 28.125 746.517 23.4918 733.717C20.7275 726.061 17.8129 718.471 14.7481 710.947C15.1078 706.208 15.7095 701.491 16.5509 696.813C17.7769 691.152 19.5437 685.672 21.2022 680.137C21.3104 679.794 20.7515 679.614 20.6073 679.939C17.3262 687.583 13.0354 697.354 12.9453 706.404C9.33967 697.895 5.50573 689.512 1.44338 681.255C0.939503 674.271 1.12063 667.254 1.9842 660.306C1.98339 660.248 1.96236 660.191 1.92472 660.147C1.88709 660.102 1.83517 660.072 1.77777 660.061C1.72038 660.051 1.66109 660.06 1.60997 660.088C1.55885 660.117 1.51911 660.162 1.49746 660.216C0.248531 666.291 -0.23601 672.499 0.0551701 678.695C-3.08173 672.493 -6.40493 666.369 -9.91441 660.324C-10.2389 659.783 -10.9781 660.324 -10.7077 660.883C-5.20906 671.465 -0.125116 682.264 4.67038 693.207C-2.06161 687.368 -9.84427 682.865 -18.2615 679.939C-18.622 679.794 -18.8924 680.335 -18.5319 680.479C-9.34561 684.423 -0.943054 689.986 6.27492 696.903C9.70027 704.908 12.9754 712.984 16.1002 721.133C6.94193 712.119 -5.53356 706.26 -17.6846 703.105C-18.0992 702.997 -18.2074 703.628 -17.8108 703.736C-3.78484 707.954 7.08617 715.905 17.7589 725.37C18.9848 728.669 20.2107 731.968 21.3645 735.267C25.8715 747.791 30.1682 760.41 34.2546 773.126C36.2257 779.136 38.1607 785.217 40.0597 791.371C42.0969 797.933 43.6653 804.856 46.3696 811.202C46.622 811.797 47.7037 811.67 47.5594 810.931C46.1359 804.662 44.3909 798.47 42.3313 792.38Z" fill="#263238"/>
<path d="M18.0835 671.358C15.4926 675.349 13.7046 679.807 12.8193 684.482C12.8193 684.608 12.9816 684.68 13.0357 684.482C14.6633 680.076 16.566 675.777 18.7326 671.61C18.9669 671.249 18.3359 670.979 18.0835 671.358Z" fill="#263238"/>
<path d="M84.1206 733.825C73.5922 736.944 63.0096 739.829 52.4812 742.929C51.5617 743.2 33.7679 709.09 40.204 691.513C43.2664 683.552 48.0688 676.376 54.2602 670.509C60.4517 664.642 67.8757 660.232 75.9899 657.602C83.5076 655.042 92.7381 652.897 100.689 654.645C107.756 656.214 112.731 661.983 115.111 668.635C118.23 677.649 117.184 688.466 115.49 697.643C114.139 706.297 110.568 714.452 105.123 721.314C99.4626 727.912 92.3234 731.391 84.1206 733.825Z" fill="url(#paint1_linear_152_9940)"/>
<path d="M99.3368 701.392C92.6787 704.651 85.7698 707.37 78.6765 709.523C73.953 710.797 69.3455 712.468 64.9029 714.517C69.3559 704.602 74.2235 694.902 79.4157 685.275C86.2123 683.31 93.3694 680.245 98.4895 675.432C98.519 675.407 98.5435 675.377 98.5613 675.342C98.5791 675.308 98.59 675.271 98.5934 675.232C98.5967 675.194 98.5924 675.155 98.5808 675.118C98.5691 675.081 98.5503 675.047 98.5255 675.017C98.5006 674.988 98.4702 674.963 98.4359 674.945C98.4016 674.928 98.3642 674.917 98.3257 674.913C98.2872 674.91 98.2484 674.914 98.2115 674.926C98.1746 674.938 98.1405 674.956 98.1109 674.981C92.5041 678.947 86.3024 681.327 80.0827 683.995C81.4889 681.399 82.8951 678.821 84.3373 676.243C84.7339 675.522 83.7604 674.819 83.2737 675.504C77.7389 683.543 72.7403 691.938 68.3103 700.635C67.1742 693.017 66.8118 685.304 67.2286 677.613C67.2286 677.415 66.9581 677.397 66.9221 677.613C65.6147 685.983 65.7 694.511 67.1745 702.853C63.5689 710.226 60.1255 717.78 57.0968 725.424C55.9069 720.827 54.3384 716.302 53.2928 711.669C51.7013 705.039 51.1899 698.197 51.7784 691.405C51.7784 691.207 51.508 691.189 51.472 691.405C49.6633 704.008 51.2502 716.866 56.0691 728.651C54.2663 733.248 52.6257 737.863 51.0933 742.497C43.1534 766.104 38.4474 790.677 37.1035 815.547C37.1035 815.666 37.151 815.781 37.2355 815.866C37.32 815.95 37.4347 815.998 37.5542 815.998C37.6738 815.998 37.7884 815.95 37.8729 815.866C37.9574 815.781 38.0049 815.666 38.0049 815.547C40.7633 791.038 46.0187 766.875 53.6894 743.434C56.7362 734.258 60.2517 725.406 64.1097 716.59C70.3294 714.787 76.5311 712.263 82.6427 710.154C88.7537 708.312 94.5212 705.48 99.7154 701.771C99.7656 701.721 99.7938 701.653 99.7938 701.582C99.7938 701.511 99.7656 701.443 99.7154 701.392C99.6651 701.342 99.5971 701.314 99.5261 701.314C99.4551 701.314 99.387 701.342 99.3368 701.392Z" fill="#263238"/>
<path d="M109.198 691.495C102.762 693.784 96.5781 696.993 90.2322 699.319C89.9257 699.427 90.106 699.896 90.3945 699.842C97.2091 698.436 103.952 696.326 109.45 691.855C109.649 691.693 109.432 691.405 109.198 691.495Z" fill="#263238"/>
<path d="M56.6097 677.595C56.6999 677.252 56.1951 677.054 56.0869 677.415C54.2841 683.346 53.1123 689.656 54.8249 695.713C54.8249 695.948 55.2756 695.966 55.2756 695.713C55.5821 689.566 55.2396 683.616 56.6097 677.595Z" fill="#263238"/>
<path d="M83.2193 663.893C81.169 666.844 80.1836 670.404 80.4249 673.989C80.4249 674.206 80.8035 674.332 80.8576 674.079C81.6508 670.672 82.9669 667.589 84.0125 664.29C84.0421 664.189 84.0351 664.08 83.9929 663.984C83.9506 663.887 83.8758 663.808 83.7814 663.761C83.687 663.714 83.579 663.701 83.4763 663.725C83.3736 663.749 83.2826 663.809 83.2193 663.893Z" fill="#263238"/>
<path d="M-41.121 748.86C-38.0382 758.668 -30.7008 772.207 -19.0906 772.297C-11.5548 772.297 -3.98298 771.468 3.57084 771.36C11.6475 771.233 19.7962 771.251 27.8187 771.738C28.4857 771.738 26.8452 747.526 7.42884 735.682C2.02038 732.365 -4.66805 731.319 -10.8517 729.985C-17.9359 728.305 -25.2073 727.548 -32.4855 727.731C-36.9565 727.912 -40.6703 728.849 -42.2568 733.428C-43.8433 738.007 -42.6174 744.137 -41.121 748.86Z" fill="url(#paint2_linear_152_9940)"/>
<path d="M-32.7742 736.601C-28.0508 737.809 -23.2914 739.215 -18.55 740.711C-19.7864 739.37 -21.0922 738.094 -22.462 736.889C-24.4992 735.213 -26.7348 733.861 -28.9162 732.364C-29.0964 732.256 -28.9161 731.896 -28.7539 731.986C-24.1586 733.894 -20.192 737.055 -17.306 741.108C-11.3928 743.001 -5.55161 745.11 0.073185 747.418C3.96338 749.015 7.69378 750.977 11.2146 753.277C10.0813 750.829 8.72977 748.488 7.17629 746.282C4.59826 742.929 1.1188 741.072 -2.25247 738.71C-2.30944 738.664 -2.34795 738.599 -2.36107 738.527C-2.37419 738.455 -2.36107 738.38 -2.32399 738.317C-2.28691 738.254 -2.22834 738.206 -2.15899 738.182C-2.08964 738.158 -2.01406 738.16 -1.94596 738.187C1.58165 739.721 4.75046 741.974 7.35802 744.802C9.96557 747.63 11.9545 750.971 13.1977 754.611C17.2387 757.516 20.9344 760.873 24.2129 764.617C37.067 779.22 47.1989 798.654 47.2349 818.467C47.2349 818.936 46.4777 819.08 46.3876 818.575C43.0792 799.148 34.6112 780.966 21.8692 765.933C20.9498 764.851 20.0664 763.842 19.0388 762.85C15.5188 762.369 11.9727 762.104 8.42024 762.057C4.29179 762.057 0.181351 762.67 -3.92907 762.994C-10.7077 763.553 -18.2074 763.625 -24.337 760.218C-24.6074 760.074 -24.337 759.605 -24.1207 759.713C-10.4733 764.671 3.82305 758.379 17.4884 761.336C11.6517 755.768 4.81249 751.357 -2.66708 748.337L-3.92907 747.832C-12.6727 748.878 -21.9573 751.168 -30.4305 748.319C-30.4566 748.312 -30.4809 748.3 -30.5023 748.283C-30.5236 748.267 -30.5415 748.246 -30.5549 748.223C-30.5683 748.2 -30.5769 748.174 -30.5803 748.147C-30.5837 748.12 -30.5818 748.093 -30.5747 748.067C-30.5676 748.041 -30.5555 748.016 -30.539 747.995C-30.5224 747.974 -30.5018 747.956 -30.4784 747.942C-30.455 747.929 -30.4291 747.92 -30.4024 747.917C-30.3756 747.914 -30.3484 747.916 -30.3224 747.923C-22.0835 749.978 -14.1871 747.382 -6.05639 746.967C-14.9082 743.524 -23.9403 740.783 -32.8102 737.358C-33.5674 737.07 -33.5854 736.385 -32.7742 736.601Z" fill="#263238"/>
<path d="M60.7381 768.367C60.5939 768.673 61.0626 768.98 61.2429 768.637C61.2781 768.689 61.3234 768.734 61.376 768.768C61.4287 768.802 61.4876 768.825 61.5494 768.836C69.3656 770.701 77.2888 772.086 85.2745 772.982C91.6925 773.559 99.102 773.902 104.727 770.188C112.353 765.122 117.347 751.619 113.236 743.037C108.369 732.852 93.6756 738.386 86.302 742.01C74.9679 747.546 65.9251 756.869 60.7381 768.367Z" fill="url(#paint3_linear_152_9940)"/>
<path d="M55.0415 773.072C59.3197 768.918 64.0765 765.287 69.2117 762.255C72.9206 756.398 77.8379 751.401 83.6343 747.598C83.9227 747.4 84.1571 747.851 83.9047 748.049C79.3112 751.726 75.236 756.008 71.7897 760.777C77.5088 757.652 83.4501 754.953 89.5655 752.7C91.7533 748.649 95.0735 745.323 99.1205 743.127C99.1205 743.127 99.3007 743.127 99.2286 743.254C95.8864 745.777 92.9708 748.82 90.5931 752.268C94.1987 750.934 97.8044 749.672 101.5 748.464C101.825 748.356 101.951 748.86 101.644 748.968C95.1542 751.51 88.5199 754.179 82.0838 757.261C89.9304 758.514 97.9262 758.514 105.773 757.261C105.989 757.261 106.079 757.532 105.773 757.586C97.5881 760.009 88.8956 760.14 80.6416 757.965C76.5439 759.956 72.565 762.183 68.7249 764.635C71.9557 764.371 75.208 764.639 78.352 765.428C83.9015 766.72 89.5826 767.361 95.2804 767.339C95.4968 767.339 95.5509 767.7 95.2804 767.736C85.4551 769.412 76.1706 764.96 66.4353 766.113C62.8212 768.575 59.4308 771.35 56.3035 774.406C50.2291 780.471 45.2302 787.524 41.5204 795.265C37.41 803.612 35.1925 812.446 31.8753 821.063C31.8538 821.142 31.8018 821.209 31.7308 821.25C31.6598 821.29 31.5756 821.301 31.4967 821.28C31.4178 821.258 31.3507 821.206 31.3102 821.135C31.2696 821.064 31.2589 820.98 31.2804 820.901C34.201 803.918 42.6562 785.187 55.0415 773.072Z" fill="#263238"/>
<path d="M84.6615 749.762C85.3187 748.607 86.1729 747.576 87.1855 746.715C88.0051 745.814 88.9905 745.08 90.088 744.552C90.1781 744.552 90.2322 744.552 90.1782 744.714C89.3669 745.615 88.2491 746.3 87.3838 747.166C86.5184 748.031 85.7792 749.077 84.8959 749.942C84.872 749.973 84.8367 749.993 84.7978 749.998C84.7589 750.004 84.7196 749.993 84.6886 749.969C84.6575 749.945 84.6372 749.91 84.6321 749.871C84.627 749.832 84.6376 749.793 84.6615 749.762Z" fill="#263238"/>
<path d="M100.869 755.044C102.329 754.684 103.862 754.702 105.34 754.395C106.811 754.045 108.262 753.611 109.685 753.097C109.726 753.087 109.769 753.091 109.807 753.11C109.845 753.129 109.876 753.16 109.893 753.199C109.91 753.238 109.913 753.281 109.901 753.322C109.89 753.363 109.864 753.398 109.829 753.422C107.133 755.084 103.966 755.812 100.815 755.495C100.635 755.459 100.653 755.098 100.869 755.044Z" fill="#263238"/>
<path d="M14.5679 799.97L15.8479 814.609L20.2287 864.042H58.9532L64.4158 814.609L66.0203 799.97H14.5679Z" fill="#FFB300"/>
<path d="M14.5679 799.97L15.8479 814.609H64.4158L66.0203 799.97H14.5679Z" fill="#FF9700"/>
<path d="M10.746 807.849H69.8784V795.968H10.746V807.849Z" fill="#FFB300"/>
<path d="M584.708 755.626L375.372 754.664C363.283 754.598 351.714 749.747 343.207 741.175C334.7 732.604 329.95 721.014 330 708.951L332.222 185.296C332.247 179.319 333.451 173.406 335.767 167.895C338.084 162.383 341.466 157.381 345.72 153.174C349.975 148.968 355.018 145.639 360.563 143.379C366.107 141.118 372.044 139.97 378.033 140.001L587.349 140.963C599.438 141.024 611.008 145.87 619.519 154.437C628.03 163.004 632.785 174.592 632.741 186.655L630.519 710.289C630.495 716.268 629.29 722.183 626.974 727.697C624.659 733.211 621.277 738.216 617.023 742.426C612.769 746.636 607.726 749.968 602.181 752.233C596.637 754.498 590.699 755.651 584.708 755.626Z" fill="#455A64"/>
<path d="M587.034 158.968H546.462C545.138 158.993 543.832 159.277 542.618 159.805C541.405 160.334 540.307 161.095 539.389 162.047C538.47 162.998 537.749 164.121 537.265 165.351C536.781 166.581 536.545 167.894 536.57 169.215V176.555C536.595 177.875 536.359 179.187 535.875 180.416C535.391 181.644 534.669 182.766 533.75 183.716C532.832 184.666 531.734 185.425 530.521 185.951C529.307 186.477 528.002 186.759 526.679 186.781L447.588 186.425C444.913 186.354 442.375 185.226 440.532 183.289C438.689 181.352 437.692 178.765 437.759 176.095V168.755C437.827 166.088 436.833 163.504 434.995 161.568C433.156 159.631 430.624 158.501 427.952 158.424H413.68L378.159 158.257C369.71 158.207 361.585 161.499 355.564 167.414C349.542 173.328 346.115 181.382 346.032 189.813L343.936 700.942C343.917 705.125 344.724 709.27 346.31 713.141C347.896 717.013 350.231 720.534 353.181 723.505C356.131 726.477 359.639 728.839 363.504 730.457C367.369 732.075 371.515 732.918 375.707 732.937L584.603 733.899C588.797 733.918 592.954 733.113 596.836 731.529C600.719 729.946 604.25 727.614 607.23 724.668C610.209 721.723 612.578 718.22 614.2 714.361C615.823 710.502 616.668 706.361 616.688 702.176L618.783 191.047C618.833 182.593 615.517 174.464 609.564 168.449C603.61 162.433 595.506 159.023 587.034 158.968Z" fill="white"/>
<path d="M433.809 393.219L379.909 392.975L379.864 402.845L433.764 403.089L433.809 393.219Z" fill="#5972B8"/>
<path opacity="0.1" d="M433.809 393.219L379.909 392.975L379.864 402.845L433.764 403.089L433.809 393.219Z" fill="#5972B8"/>
<path d="M590.806 453.785C591.23 453.735 591.65 453.658 592.064 453.555C592.646 453.37 593.183 453.064 593.638 452.656C594.093 452.249 594.457 451.75 594.704 451.192C595.033 450.347 595.162 449.438 595.081 448.536C595.081 447.511 595.081 446.445 595.081 445.211C595.081 442.806 595.081 440.025 595.081 436.846V423.567C595.181 422.606 594.968 421.638 594.474 420.807C593.944 419.97 593.135 419.348 592.189 419.05C591.146 418.857 590.083 418.794 589.025 418.862H558.868L384.194 418.214C383.255 418.216 382.348 418.558 381.642 419.178C380.937 419.797 380.481 420.651 380.359 421.58C380.359 423.672 380.359 425.763 380.359 427.854C380.359 432.036 380.359 436.219 380.359 440.401C380.359 442.492 380.359 444.583 380.359 446.675C380.281 447.645 380.323 448.621 380.485 449.581C380.736 450.435 381.277 451.174 382.015 451.673C382.784 452.174 383.697 452.409 384.613 452.342H393.729L440.107 452.593L518.631 453.074L571.568 453.492L585.965 453.659H589.716C590.555 453.659 590.974 453.659 590.974 453.659C590.974 453.659 590.555 453.659 589.716 453.659H585.965H571.568H518.631L440.107 453.429L393.729 453.241H384.613C383.479 453.317 382.351 453.016 381.407 452.384C380.453 451.724 379.757 450.757 379.437 449.644C379.249 448.582 379.193 447.5 379.269 446.424C379.269 444.333 379.269 442.241 379.269 440.15C379.269 435.968 379.269 431.785 379.269 427.603C379.269 425.512 379.269 423.421 379.269 421.225C379.418 420.031 379.998 418.932 380.901 418.135C381.804 417.338 382.968 416.897 384.173 416.896L558.847 417.858L589.004 418.088C590.127 418.019 591.254 418.097 592.357 418.318C593.446 418.673 594.364 419.418 594.935 420.409C595.477 421.33 595.712 422.4 595.605 423.462C595.605 424.445 595.605 425.428 595.605 426.369C595.605 430.154 595.605 433.626 595.605 436.825C595.605 440.025 595.605 442.722 595.605 445.19C595.605 446.382 595.605 447.49 595.605 448.515C595.686 449.45 595.535 450.391 595.165 451.254C594.893 451.831 594.5 452.343 594.011 452.754C593.523 453.166 592.952 453.467 592.336 453.638C591.845 453.806 591.321 453.856 590.806 453.785Z" fill="#E0E0E0"/>
<path d="M403.684 436.721C403.622 437.562 403.314 438.366 402.798 439.034C402.283 439.703 401.582 440.205 400.782 440.479C399.983 440.753 399.121 440.787 398.302 440.577C397.483 440.367 396.745 439.921 396.178 439.296C395.611 438.671 395.24 437.893 395.112 437.059C394.983 436.226 395.103 435.373 395.456 434.606C395.809 433.84 396.38 433.194 397.097 432.748C397.815 432.302 398.648 432.077 399.493 432.099C400.66 432.164 401.755 432.686 402.54 433.551C403.324 434.416 403.736 435.555 403.684 436.721Z" fill="#8295CA"/>
<path d="M417.034 436.784C417.075 437.373 416.994 437.965 416.797 438.522C416.599 439.079 416.288 439.589 415.884 440.022C415.48 440.454 414.992 440.798 414.449 441.034C413.905 441.27 413.319 441.391 412.727 441.391C412.135 441.391 411.549 441.27 411.006 441.034C410.463 440.798 409.974 440.454 409.57 440.022C409.166 439.589 408.856 439.079 408.658 438.522C408.46 437.965 408.379 437.373 408.421 436.784C408.379 436.194 408.46 435.602 408.658 435.045C408.856 434.488 409.166 433.978 409.57 433.545C409.974 433.113 410.463 432.769 411.006 432.533C411.549 432.297 412.135 432.176 412.727 432.176C413.319 432.176 413.905 432.297 414.449 432.533C414.992 432.769 415.48 433.113 415.884 433.545C416.288 433.978 416.599 434.488 416.797 435.045C416.994 435.602 417.075 436.194 417.034 436.784Z" fill="#8295CA"/>
<path d="M430.404 436.846C430.342 437.688 430.034 438.492 429.518 439.16C429.002 439.828 428.301 440.331 427.502 440.605C426.703 440.879 425.84 440.913 425.022 440.703C424.203 440.493 423.465 440.047 422.897 439.422C422.33 438.796 421.96 438.019 421.831 437.185C421.703 436.351 421.823 435.498 422.176 434.732C422.529 433.966 423.099 433.32 423.817 432.874C424.535 432.428 425.368 432.202 426.212 432.225C427.378 432.295 428.47 432.818 429.253 433.682C430.037 434.546 430.45 435.682 430.404 436.846Z" fill="#8295CA"/>
<path d="M443.753 436.909C443.692 437.75 443.384 438.554 442.868 439.222C442.352 439.891 441.651 440.393 440.852 440.667C440.052 440.941 439.19 440.975 438.371 440.765C437.553 440.555 436.814 440.109 436.247 439.484C435.68 438.859 435.309 438.081 435.181 437.247C435.053 436.414 435.172 435.561 435.525 434.794C435.878 434.028 436.449 433.382 437.167 432.936C437.884 432.49 438.717 432.265 439.562 432.287C440.728 432.357 441.819 432.88 442.603 433.744C443.386 434.608 443.799 435.744 443.753 436.909Z" fill="#8295CA"/>
<path d="M457.103 436.95C457.045 437.793 456.74 438.6 456.227 439.271C455.713 439.942 455.013 440.448 454.214 440.725C453.415 441.002 452.551 441.039 451.731 440.831C450.911 440.623 450.17 440.179 449.601 439.554C449.032 438.929 448.659 438.151 448.53 437.317C448.4 436.482 448.519 435.628 448.871 434.861C449.224 434.093 449.795 433.446 450.513 433C451.231 432.553 452.065 432.327 452.911 432.35C454.073 432.42 455.161 432.94 455.944 433.8C456.727 434.659 457.143 435.79 457.103 436.95Z" fill="#8295CA"/>
<path d="M470.473 437.013C470.416 437.851 470.114 438.654 469.605 439.324C469.097 439.993 468.403 440.499 467.61 440.78C466.816 441.061 465.958 441.104 465.14 440.905C464.323 440.705 463.581 440.272 463.007 439.657C462.433 439.043 462.052 438.274 461.91 437.446C461.769 436.618 461.872 435.767 462.209 434.997C462.546 434.227 463.101 433.572 463.806 433.113C464.511 432.654 465.335 432.41 466.177 432.412C467.357 432.456 468.472 432.965 469.277 433.827C470.083 434.689 470.512 435.835 470.473 437.013Z" fill="#8295CA"/>
<path d="M483.822 437.076C483.864 437.666 483.783 438.257 483.585 438.815C483.387 439.372 483.077 439.882 482.673 440.314C482.269 440.747 481.78 441.091 481.237 441.327C480.694 441.562 480.108 441.684 479.516 441.684C478.924 441.684 478.338 441.562 477.794 441.327C477.251 441.091 476.763 440.747 476.359 440.314C475.955 439.882 475.644 439.372 475.446 438.815C475.249 438.257 475.168 437.666 475.209 437.076C475.168 436.487 475.249 435.895 475.446 435.338C475.644 434.781 475.955 434.27 476.359 433.838C476.763 433.406 477.251 433.061 477.794 432.826C478.338 432.59 478.924 432.468 479.516 432.468C480.108 432.468 480.694 432.59 481.237 432.826C481.78 433.061 482.269 433.406 482.673 433.838C483.077 434.27 483.387 434.781 483.585 435.338C483.783 435.895 483.864 436.487 483.822 437.076Z" fill="#8295CA"/>
<path d="M497.172 437.139C497.115 437.977 496.813 438.78 496.305 439.449C495.796 440.119 495.102 440.625 494.309 440.906C493.516 441.187 492.657 441.23 491.84 441.031C491.022 440.831 490.28 440.397 489.706 439.783C489.133 439.168 488.751 438.4 488.61 437.572C488.468 436.744 488.572 435.892 488.908 435.123C489.245 434.353 489.8 433.698 490.505 433.239C491.21 432.78 492.034 432.536 492.876 432.538C494.056 432.582 495.171 433.09 495.976 433.953C496.782 434.815 497.212 435.961 497.172 437.139Z" fill="#8295CA"/>
<path d="M510.522 437.202C510.464 438.044 510.159 438.851 509.645 439.522C509.132 440.193 508.432 440.699 507.633 440.976C506.834 441.253 505.97 441.29 505.15 441.082C504.33 440.874 503.589 440.43 503.02 439.805C502.451 439.18 502.078 438.402 501.949 437.568C501.819 436.734 501.938 435.88 502.29 435.112C502.643 434.344 503.214 433.697 503.932 433.251C504.65 432.804 505.484 432.578 506.33 432.601C507.492 432.671 508.58 433.191 509.363 434.051C510.146 434.91 510.562 436.041 510.522 437.202Z" fill="#8295CA"/>
<g opacity="0.2">
<path d="M403.684 436.721C403.622 437.562 403.314 438.366 402.798 439.034C402.283 439.703 401.582 440.205 400.782 440.479C399.983 440.753 399.121 440.787 398.302 440.577C397.483 440.367 396.745 439.921 396.178 439.296C395.611 438.671 395.24 437.893 395.112 437.059C394.983 436.226 395.103 435.373 395.456 434.606C395.809 433.84 396.38 433.194 397.097 432.748C397.815 432.302 398.648 432.077 399.493 432.099C400.66 432.164 401.755 432.686 402.54 433.551C403.324 434.416 403.736 435.555 403.684 436.721Z" fill="white"/>
<path d="M417.033 436.784C417.075 437.373 416.994 437.965 416.796 438.522C416.598 439.079 416.288 439.589 415.884 440.022C415.48 440.454 414.991 440.798 414.448 441.034C413.905 441.27 413.319 441.391 412.727 441.391C412.134 441.391 411.549 441.27 411.005 441.034C410.462 440.798 409.974 440.454 409.57 440.022C409.166 439.589 408.855 439.079 408.657 438.522C408.46 437.965 408.379 437.373 408.42 436.784C408.379 436.194 408.46 435.602 408.657 435.045C408.855 434.488 409.166 433.978 409.57 433.545C409.974 433.113 410.462 432.769 411.005 432.533C411.549 432.297 412.134 432.176 412.727 432.176C413.319 432.176 413.905 432.297 414.448 432.533C414.991 432.769 415.48 433.113 415.884 433.545C416.288 433.978 416.598 434.488 416.796 435.045C416.994 435.602 417.075 436.194 417.033 436.784Z" fill="white"/>
<path d="M430.404 436.846C430.342 437.688 430.034 438.492 429.518 439.16C429.002 439.828 428.301 440.331 427.502 440.605C426.703 440.879 425.84 440.913 425.022 440.703C424.203 440.493 423.465 440.047 422.897 439.422C422.33 438.796 421.96 438.019 421.831 437.185C421.703 436.351 421.823 435.498 422.176 434.732C422.529 433.966 423.099 433.32 423.817 432.874C424.535 432.428 425.368 432.202 426.212 432.225C427.378 432.295 428.47 432.818 429.253 433.682C430.037 434.546 430.45 435.682 430.404 436.846Z" fill="white"/>
<path d="M443.753 436.909C443.692 437.75 443.384 438.555 442.868 439.223C442.352 439.891 441.651 440.393 440.852 440.668C440.052 440.942 439.19 440.976 438.371 440.766C437.553 440.555 436.814 440.11 436.247 439.484C435.68 438.859 435.309 438.081 435.181 437.248C435.053 436.414 435.172 435.561 435.525 434.795C435.878 434.028 436.449 433.382 437.167 432.937C437.884 432.491 438.717 432.265 439.562 432.288C440.728 432.358 441.819 432.881 442.603 433.745C443.386 434.609 443.799 435.745 443.753 436.909Z" fill="white"/>
<path d="M457.103 436.951C457.045 437.793 456.74 438.6 456.227 439.271C455.713 439.942 455.013 440.448 454.214 440.725C453.415 441.003 452.551 441.039 451.731 440.831C450.911 440.623 450.17 440.179 449.601 439.554C449.032 438.929 448.659 438.151 448.53 437.317C448.4 436.483 448.519 435.629 448.871 434.861C449.224 434.093 449.795 433.446 450.513 433C451.231 432.553 452.065 432.327 452.911 432.35C454.073 432.42 455.161 432.941 455.944 433.8C456.727 434.659 457.143 435.79 457.103 436.951Z" fill="white"/>
<path d="M470.473 437.014C470.416 437.852 470.115 438.655 469.606 439.324C469.097 439.993 468.404 440.5 467.61 440.781C466.817 441.062 465.959 441.105 465.141 440.905C464.323 440.706 463.582 440.272 463.008 439.658C462.434 439.043 462.053 438.275 461.911 437.447C461.769 436.618 461.873 435.767 462.21 434.997C462.547 434.228 463.102 433.573 463.806 433.114C464.511 432.654 465.335 432.411 466.177 432.413C467.358 432.457 468.472 432.965 469.278 433.828C470.083 434.69 470.513 435.836 470.473 437.014Z" fill="white"/>
<path d="M483.822 437.076C483.864 437.666 483.783 438.258 483.585 438.815C483.387 439.372 483.077 439.882 482.673 440.315C482.269 440.747 481.78 441.091 481.237 441.327C480.694 441.563 480.108 441.684 479.516 441.684C478.924 441.684 478.338 441.563 477.794 441.327C477.251 441.091 476.763 440.747 476.359 440.315C475.955 439.882 475.644 439.372 475.446 438.815C475.249 438.258 475.168 437.666 475.209 437.076C475.168 436.487 475.249 435.895 475.446 435.338C475.644 434.781 475.955 434.27 476.359 433.838C476.763 433.406 477.251 433.062 477.794 432.826C478.338 432.59 478.924 432.469 479.516 432.469C480.108 432.469 480.694 432.59 481.237 432.826C481.78 433.062 482.269 433.406 482.673 433.838C483.077 434.27 483.387 434.781 483.585 435.338C483.783 435.895 483.864 436.487 483.822 437.076Z" fill="white"/>
<path d="M497.172 437.139C497.115 437.977 496.813 438.78 496.305 439.45C495.796 440.119 495.102 440.625 494.309 440.906C493.516 441.187 492.657 441.23 491.84 441.031C491.022 440.831 490.28 440.398 489.706 439.783C489.133 439.168 488.751 438.4 488.61 437.572C488.468 436.744 488.572 435.893 488.908 435.123C489.245 434.353 489.8 433.698 490.505 433.239C491.21 432.78 492.034 432.536 492.876 432.538C494.056 432.582 495.171 433.091 495.976 433.953C496.782 434.815 497.212 435.961 497.172 437.139Z" fill="white"/>
<path d="M510.521 437.201C510.463 438.044 510.159 438.851 509.645 439.522C509.131 440.193 508.432 440.698 507.632 440.976C506.833 441.253 505.97 441.29 505.15 441.082C504.33 440.874 503.589 440.43 503.02 439.805C502.45 439.18 502.078 438.402 501.948 437.568C501.818 436.733 501.937 435.879 502.29 435.112C502.642 434.344 503.213 433.697 503.932 433.251C504.65 432.804 505.484 432.578 506.33 432.601C507.492 432.671 508.58 433.191 509.363 434.051C510.146 434.91 510.561 436.041 510.521 437.201Z" fill="white"/>
</g>
<path d="M536.643 328.198L437.749 327.75L437.695 339.544L536.589 339.992L536.643 328.198Z" fill="#8295CA"/>
<path opacity="0.2" d="M536.643 328.198L437.749 327.75L437.695 339.544L536.589 339.992L536.643 328.198Z" fill="white"/>
<path d="M553.557 483H406C403.239 483 401 485.239 401 488V508C401 510.762 403.239 513 406 513H553.557C556.318 513 558.557 510.762 558.557 508V488C558.557 485.239 556.318 483 553.557 483Z" fill="#5972B8"/>
<path d="M429.9 503V492.5H433.32C433.875 492.5 434.378 492.635 434.828 492.905C435.278 493.17 435.633 493.533 435.893 493.993C436.158 494.453 436.29 494.968 436.29 495.538C436.29 496.068 436.178 496.545 435.953 496.97C435.733 497.395 435.433 497.745 435.053 498.02C434.673 498.29 434.248 498.46 433.778 498.53L436.358 503H435.42L432.855 498.583H430.71V503H429.9ZM430.71 497.773H433.268C433.673 497.773 434.043 497.675 434.378 497.48C434.713 497.28 434.98 497.01 435.18 496.67C435.38 496.33 435.48 495.943 435.48 495.508C435.48 495.078 435.38 494.693 435.18 494.353C434.98 494.008 434.713 493.738 434.378 493.543C434.043 493.343 433.673 493.243 433.268 493.243H430.71V497.773ZM441.183 503.195C440.493 503.195 439.863 503.018 439.293 502.663C438.728 502.308 438.276 501.833 437.936 501.238C437.601 500.638 437.433 499.975 437.433 499.25C437.433 498.7 437.531 498.188 437.726 497.713C437.921 497.233 438.188 496.813 438.528 496.453C438.873 496.088 439.273 495.803 439.728 495.598C440.183 495.393 440.668 495.29 441.183 495.29C441.728 495.29 442.231 495.398 442.691 495.613C443.156 495.823 443.556 496.12 443.891 496.505C444.226 496.89 444.483 497.345 444.663 497.87C444.843 498.39 444.926 498.96 444.911 499.58H438.281C438.336 500.115 438.496 500.595 438.761 501.02C439.031 501.44 439.376 501.773 439.796 502.018C440.216 502.258 440.678 502.38 441.183 502.385C441.738 502.385 442.238 502.24 442.683 501.95C443.128 501.655 443.486 501.253 443.756 500.743L444.573 500.93C444.273 501.595 443.821 502.14 443.216 502.565C442.611 502.985 441.933 503.195 441.183 503.195ZM438.258 498.89H444.093C444.063 498.375 443.913 497.903 443.643 497.473C443.378 497.038 443.031 496.69 442.601 496.43C442.171 496.17 441.698 496.04 441.183 496.04C440.668 496.04 440.198 496.168 439.773 496.423C439.348 496.678 439.001 497.023 438.731 497.458C438.466 497.888 438.308 498.365 438.258 498.89ZM448.566 503.143C448.151 503.138 447.743 503.065 447.343 502.925C446.948 502.78 446.603 502.588 446.308 502.348C446.013 502.108 445.808 501.835 445.693 501.53L446.406 501.223C446.491 501.448 446.653 501.65 446.893 501.83C447.138 502.01 447.413 502.153 447.718 502.258C448.028 502.358 448.331 502.408 448.626 502.408C448.961 502.408 449.276 502.35 449.571 502.235C449.866 502.12 450.106 501.958 450.291 501.748C450.476 501.538 450.568 501.29 450.568 501.005C450.568 500.705 450.471 500.47 450.276 500.3C450.081 500.125 449.831 499.985 449.526 499.88C449.226 499.77 448.916 499.668 448.596 499.573C448.046 499.413 447.568 499.25 447.163 499.085C446.763 498.915 446.453 498.7 446.233 498.44C446.013 498.18 445.903 497.838 445.903 497.413C445.903 496.973 446.031 496.59 446.286 496.265C446.541 495.94 446.876 495.69 447.291 495.515C447.706 495.335 448.151 495.245 448.626 495.245C449.241 495.245 449.798 495.38 450.298 495.65C450.803 495.92 451.158 496.275 451.363 496.715L450.703 497.105C450.603 496.875 450.446 496.678 450.231 496.513C450.016 496.348 449.771 496.22 449.496 496.13C449.221 496.04 448.943 495.993 448.663 495.988C448.313 495.983 447.986 496.038 447.681 496.153C447.381 496.263 447.138 496.425 446.953 496.64C446.768 496.85 446.676 497.105 446.676 497.405C446.676 497.705 446.761 497.935 446.931 498.095C447.101 498.255 447.338 498.385 447.643 498.485C447.948 498.58 448.301 498.693 448.701 498.823C449.166 498.968 449.598 499.13 449.998 499.31C450.403 499.485 450.728 499.705 450.973 499.97C451.223 500.235 451.346 500.578 451.341 500.998C451.341 501.438 451.208 501.82 450.943 502.145C450.683 502.47 450.341 502.72 449.916 502.895C449.496 503.07 449.046 503.153 448.566 503.143ZM455.89 503.195C455.2 503.195 454.57 503.018 454 502.663C453.435 502.308 452.983 501.833 452.643 501.238C452.308 500.638 452.14 499.975 452.14 499.25C452.14 498.7 452.238 498.188 452.433 497.713C452.628 497.233 452.895 496.813 453.235 496.453C453.58 496.088 453.98 495.803 454.435 495.598C454.89 495.393 455.375 495.29 455.89 495.29C456.435 495.29 456.938 495.398 457.398 495.613C457.863 495.823 458.263 496.12 458.598 496.505C458.933 496.89 459.19 497.345 459.37 497.87C459.55 498.39 459.633 498.96 459.618 499.58H452.988C453.043 500.115 453.203 500.595 453.468 501.02C453.738 501.44 454.083 501.773 454.503 502.018C454.923 502.258 455.385 502.38 455.89 502.385C456.445 502.385 456.945 502.24 457.39 501.95C457.835 501.655 458.193 501.253 458.463 500.743L459.28 500.93C458.98 501.595 458.528 502.14 457.923 502.565C457.318 502.985 456.64 503.195 455.89 503.195ZM452.965 498.89H458.8C458.77 498.375 458.62 497.903 458.35 497.473C458.085 497.038 457.738 496.69 457.308 496.43C456.878 496.17 456.405 496.04 455.89 496.04C455.375 496.04 454.905 496.168 454.48 496.423C454.055 496.678 453.708 497.023 453.438 497.458C453.173 497.888 453.015 498.365 452.965 498.89ZM464.522 496.31H462.625L462.617 503H461.807L461.815 496.31H460.382V495.5H461.815L461.807 493.145H462.617L462.625 495.5H464.522V496.31ZM469.465 503V492.5H472.705C473.26 492.5 473.76 492.635 474.205 492.905C474.655 493.17 475.013 493.533 475.278 493.993C475.543 494.453 475.675 494.968 475.675 495.538C475.675 496.118 475.54 496.638 475.27 497.098C475 497.558 474.64 497.92 474.19 498.185C473.74 498.45 473.245 498.583 472.705 498.583H470.275V503H469.465ZM470.275 497.773H472.653C473.058 497.773 473.428 497.675 473.763 497.48C474.098 497.28 474.365 497.01 474.565 496.67C474.765 496.33 474.865 495.943 474.865 495.508C474.865 495.078 474.765 494.693 474.565 494.353C474.365 494.008 474.098 493.738 473.763 493.543C473.428 493.343 473.058 493.243 472.653 493.243H470.275V497.773ZM482.892 495.5H483.702V503H482.892L482.87 501.463C482.615 501.983 482.25 502.403 481.775 502.723C481.305 503.038 480.74 503.195 480.08 503.195C479.535 503.195 479.022 503.093 478.542 502.888C478.067 502.678 477.647 502.393 477.282 502.033C476.917 501.668 476.632 501.248 476.427 500.773C476.222 500.293 476.12 499.778 476.12 499.228C476.12 498.683 476.22 498.173 476.42 497.698C476.625 497.223 476.907 496.805 477.267 496.445C477.627 496.08 478.045 495.798 478.52 495.598C478.995 495.393 479.502 495.29 480.042 495.29C480.707 495.29 481.282 495.453 481.767 495.778C482.257 496.098 482.64 496.518 482.915 497.038L482.892 495.5ZM480.072 502.4C480.647 502.4 481.14 502.26 481.55 501.98C481.965 501.695 482.282 501.313 482.502 500.833C482.722 500.353 482.832 499.825 482.832 499.25C482.832 498.66 482.72 498.128 482.495 497.653C482.275 497.173 481.957 496.793 481.542 496.513C481.132 496.228 480.642 496.085 480.072 496.085C479.492 496.085 478.965 496.228 478.49 496.513C478.02 496.798 477.645 497.18 477.365 497.66C477.085 498.14 476.945 498.67 476.945 499.25C476.945 499.84 477.087 500.373 477.372 500.848C477.662 501.323 478.045 501.7 478.52 501.98C478.995 502.26 479.512 502.4 480.072 502.4ZM487.545 503.143C487.13 503.138 486.723 503.065 486.323 502.925C485.928 502.78 485.583 502.588 485.288 502.348C484.993 502.108 484.788 501.835 484.673 501.53L485.385 501.223C485.47 501.448 485.633 501.65 485.873 501.83C486.118 502.01 486.393 502.153 486.698 502.258C487.008 502.358 487.31 502.408 487.605 502.408C487.94 502.408 488.255 502.35 488.55 502.235C488.845 502.12 489.085 501.958 489.27 501.748C489.455 501.538 489.548 501.29 489.548 501.005C489.548 500.705 489.45 500.47 489.255 500.3C489.06 500.125 488.81 499.985 488.505 499.88C488.205 499.77 487.895 499.668 487.575 499.573C487.025 499.413 486.548 499.25 486.143 499.085C485.743 498.915 485.433 498.7 485.213 498.44C484.993 498.18 484.883 497.838 484.883 497.413C484.883 496.973 485.01 496.59 485.265 496.265C485.52 495.94 485.855 495.69 486.27 495.515C486.685 495.335 487.13 495.245 487.605 495.245C488.22 495.245 488.778 495.38 489.278 495.65C489.783 495.92 490.138 496.275 490.343 496.715L489.683 497.105C489.583 496.875 489.425 496.678 489.21 496.513C488.995 496.348 488.75 496.22 488.475 496.13C488.2 496.04 487.923 495.993 487.643 495.988C487.293 495.983 486.965 496.038 486.66 496.153C486.36 496.263 486.118 496.425 485.933 496.64C485.748 496.85 485.655 497.105 485.655 497.405C485.655 497.705 485.74 497.935 485.91 498.095C486.08 498.255 486.318 498.385 486.623 498.485C486.928 498.58 487.28 498.693 487.68 498.823C488.145 498.968 488.578 499.13 488.978 499.31C489.383 499.485 489.708 499.705 489.953 499.97C490.203 500.235 490.325 500.578 490.32 500.998C490.32 501.438 490.188 501.82 489.923 502.145C489.663 502.47 489.32 502.72 488.895 502.895C488.475 503.07 488.025 503.153 487.545 503.143ZM493.961 503.143C493.546 503.138 493.139 503.065 492.739 502.925C492.344 502.78 491.999 502.588 491.704 502.348C491.409 502.108 491.204 501.835 491.089 501.53L491.801 501.223C491.886 501.448 492.049 501.65 492.289 501.83C492.534 502.01 492.809 502.153 493.114 502.258C493.424 502.358 493.726 502.408 494.021 502.408C494.356 502.408 494.671 502.35 494.966 502.235C495.261 502.12 495.501 501.958 495.686 501.748C495.871 501.538 495.964 501.29 495.964 501.005C495.964 500.705 495.866 500.47 495.671 500.3C495.476 500.125 495.226 499.985 494.921 499.88C494.621 499.77 494.311 499.668 493.991 499.573C493.441 499.413 492.964 499.25 492.559 499.085C492.159 498.915 491.849 498.7 491.629 498.44C491.409 498.18 491.299 497.838 491.299 497.413C491.299 496.973 491.426 496.59 491.681 496.265C491.936 495.94 492.271 495.69 492.686 495.515C493.101 495.335 493.546 495.245 494.021 495.245C494.636 495.245 495.194 495.38 495.694 495.65C496.199 495.92 496.554 496.275 496.759 496.715L496.099 497.105C495.999 496.875 495.841 496.678 495.626 496.513C495.411 496.348 495.166 496.22 494.891 496.13C494.616 496.04 494.339 495.993 494.059 495.988C493.709 495.983 493.381 496.038 493.076 496.153C492.776 496.263 492.534 496.425 492.349 496.64C492.164 496.85 492.071 497.105 492.071 497.405C492.071 497.705 492.156 497.935 492.326 498.095C492.496 498.255 492.734 498.385 493.039 498.485C493.344 498.58 493.696 498.693 494.096 498.823C494.561 498.968 494.994 499.13 495.394 499.31C495.799 499.485 496.124 499.705 496.369 499.97C496.619 500.235 496.741 500.578 496.736 500.998C496.736 501.438 496.604 501.82 496.339 502.145C496.079 502.47 495.736 502.72 495.311 502.895C494.891 503.07 494.441 503.153 493.961 503.143ZM500.859 503H500.004L497.492 495.5H498.279L500.447 501.913L502.599 495.5H503.492L505.644 501.913L507.797 495.5H508.599L506.079 503H505.217L503.034 496.52L500.859 503ZM512.902 503.195C512.212 503.195 511.582 503.018 511.012 502.663C510.447 502.308 509.995 501.833 509.655 501.238C509.32 500.638 509.152 499.975 509.152 499.25C509.152 498.7 509.25 498.188 509.445 497.713C509.64 497.233 509.907 496.813 510.247 496.453C510.592 496.088 510.992 495.803 511.447 495.598C511.902 495.393 512.387 495.29 512.902 495.29C513.592 495.29 514.22 495.468 514.785 495.823C515.355 496.178 515.807 496.655 516.142 497.255C516.482 497.855 516.652 498.52 516.652 499.25C516.652 499.795 516.555 500.305 516.36 500.78C516.165 501.255 515.895 501.675 515.55 502.04C515.21 502.4 514.812 502.683 514.357 502.888C513.907 503.093 513.422 503.195 512.902 503.195ZM512.902 502.385C513.457 502.385 513.955 502.24 514.395 501.95C514.84 501.66 515.192 501.278 515.452 500.803C515.712 500.328 515.842 499.81 515.842 499.25C515.842 498.685 515.712 498.163 515.452 497.683C515.192 497.203 514.84 496.82 514.395 496.535C513.95 496.245 513.452 496.1 512.902 496.1C512.347 496.1 511.847 496.245 511.402 496.535C510.957 496.825 510.605 497.21 510.345 497.69C510.09 498.165 509.962 498.685 509.962 499.25C509.962 499.835 510.095 500.365 510.36 500.84C510.63 501.31 510.987 501.685 511.432 501.965C511.877 502.245 512.367 502.385 512.902 502.385ZM517.952 503V495.5H518.762V496.648C519.032 496.233 519.389 495.903 519.834 495.658C520.279 495.413 520.764 495.29 521.289 495.29C521.584 495.29 521.867 495.328 522.137 495.403L521.799 496.198C521.584 496.138 521.374 496.108 521.169 496.108C520.729 496.108 520.327 496.215 519.962 496.43C519.597 496.645 519.304 496.935 519.084 497.3C518.869 497.665 518.762 498.07 518.762 498.515V503H517.952ZM529.02 491.75H529.83V503H529.02V501.455C528.76 501.98 528.39 502.403 527.91 502.723C527.43 503.038 526.858 503.195 526.193 503.195C525.648 503.195 525.138 503.093 524.663 502.888C524.188 502.683 523.768 502.4 523.403 502.04C523.043 501.675 522.76 501.255 522.555 500.78C522.35 500.305 522.248 499.795 522.248 499.25C522.248 498.705 522.35 498.195 522.555 497.72C522.76 497.24 523.043 496.82 523.403 496.46C523.768 496.095 524.188 495.81 524.663 495.605C525.138 495.4 525.648 495.298 526.193 495.298C526.858 495.298 527.43 495.458 527.91 495.778C528.39 496.093 528.76 496.51 529.02 497.03V491.75ZM526.2 502.4C526.775 502.4 527.268 502.26 527.678 501.98C528.093 501.695 528.41 501.313 528.63 500.833C528.85 500.353 528.96 499.825 528.96 499.25C528.96 498.66 528.848 498.128 528.623 497.653C528.403 497.173 528.085 496.793 527.67 496.513C527.26 496.228 526.77 496.085 526.2 496.085C525.625 496.085 525.1 496.228 524.625 496.513C524.155 496.798 523.778 497.18 523.493 497.66C523.213 498.14 523.073 498.67 523.073 499.25C523.073 499.84 523.215 500.373 523.5 500.848C523.79 501.323 524.173 501.7 524.648 501.98C525.123 502.26 525.64 502.4 526.2 502.4Z" fill="white"/>
<path d="M496.791 280.169V294.501H492.733V280.169C492.733 274.712 488.588 270.274 483.494 270.274C478.4 270.274 474.256 274.712 474.256 280.169V294.501H470.198V280.169C470.198 272.355 476.164 266 483.494 266C490.825 266 496.791 272.355 496.791 280.169Z" fill="#C7C7C7"/>
<path d="M470.198 283.899L474.256 284.063V294.519H470.198V283.899Z" fill="#A6A6A6"/>
<path d="M496.791 284.986V294.519H492.733V284.814L496.791 284.986Z" fill="#A6A6A6"/>
<path d="M501.989 286.351H465V319.903H501.989V286.351Z" fill="url(#paint4_linear_152_9940)"/>
<path opacity="0.1" d="M501.988 286.351H483.494V319.903H501.988V286.351Z" fill="black"/>
<path d="M485.057 304.353L486.611 311.701H480.032L481.586 304.353C480.977 303.977 480.507 303.413 480.247 302.745C479.988 302.078 479.953 301.344 480.148 300.656C480.344 299.967 480.758 299.36 481.329 298.929C481.901 298.497 482.597 298.263 483.313 298.263C484.029 298.263 484.725 298.497 485.297 298.929C485.868 299.36 486.283 299.967 486.478 300.656C486.673 301.344 486.638 302.078 486.379 302.745C486.119 303.413 485.649 303.977 485.04 304.353H485.057Z" fill="#263238"/>
<path d="M462.684 694.832C462.681 695.591 462.453 696.332 462.029 696.962C461.605 697.592 461.004 698.082 460.302 698.37C459.6 698.659 458.828 698.733 458.083 698.583C457.339 698.433 456.656 698.066 456.12 697.528C455.584 696.99 455.22 696.305 455.073 695.56C454.926 694.815 455.003 694.044 455.294 693.343C455.585 692.641 456.078 692.042 456.709 691.621C457.341 691.199 458.083 690.974 458.842 690.974C459.348 690.974 459.849 691.074 460.316 691.268C460.783 691.462 461.207 691.747 461.564 692.105C461.921 692.463 462.204 692.889 462.396 693.357C462.588 693.824 462.686 694.326 462.684 694.832Z" fill="#DBDBDB"/>
<path d="M486.101 694.832C486.098 695.981 485.755 697.104 485.114 698.059C484.473 699.013 483.563 699.756 482.5 700.194C481.437 700.632 480.268 700.745 479.141 700.519C478.014 700.293 476.979 699.738 476.167 698.924C475.355 698.11 474.803 697.073 474.579 695.946C474.356 694.818 474.472 693.649 474.913 692.587C475.354 691.525 476.099 690.618 477.055 689.979C478.011 689.341 479.135 689 480.285 689C481.829 689.004 483.308 689.62 484.399 690.713C485.489 691.807 486.101 693.288 486.101 694.832Z" fill="#5972B8"/>
<path d="M505.57 694.832C505.57 695.594 505.344 696.34 504.92 696.975C504.496 697.609 503.894 698.103 503.189 698.395C502.484 698.687 501.708 698.764 500.96 698.615C500.212 698.466 499.525 698.099 498.985 697.559C498.446 697.02 498.078 696.332 497.93 695.584C497.781 694.836 497.857 694.06 498.149 693.355C498.441 692.651 498.935 692.048 499.57 691.624C500.204 691.2 500.95 690.974 501.713 690.974C502.736 690.974 503.717 691.381 504.44 692.104C505.164 692.827 505.57 693.809 505.57 694.832Z" fill="#DBDBDB"/>
<path d="M435.9 213V202.5H442.058V203.76H437.16V206.745H441.338V208.005H437.16V213H435.9ZM445.719 213.195C445.029 213.195 444.399 213.018 443.829 212.663C443.264 212.308 442.811 211.833 442.471 211.238C442.136 210.638 441.969 209.975 441.969 209.25C441.969 208.7 442.066 208.188 442.261 207.713C442.456 207.233 442.724 206.813 443.064 206.453C443.409 206.088 443.809 205.803 444.264 205.598C444.719 205.393 445.204 205.29 445.719 205.29C446.409 205.29 447.036 205.468 447.601 205.823C448.171 206.178 448.624 206.655 448.959 207.255C449.299 207.855 449.469 208.52 449.469 209.25C449.469 209.795 449.371 210.305 449.176 210.78C448.981 211.255 448.711 211.675 448.366 212.04C448.026 212.4 447.629 212.683 447.174 212.888C446.724 213.093 446.239 213.195 445.719 213.195ZM445.719 211.935C446.189 211.935 446.611 211.813 446.986 211.568C447.366 211.318 447.664 210.99 447.879 210.585C448.099 210.175 448.209 209.73 448.209 209.25C448.209 208.76 448.096 208.31 447.871 207.9C447.651 207.49 447.354 207.163 446.979 206.918C446.604 206.673 446.184 206.55 445.719 206.55C445.249 206.55 444.826 206.675 444.451 206.925C444.076 207.17 443.779 207.498 443.559 207.908C443.339 208.318 443.229 208.765 443.229 209.25C443.229 209.75 443.341 210.205 443.566 210.615C443.791 211.02 444.094 211.343 444.474 211.583C444.854 211.818 445.269 211.935 445.719 211.935ZM450.71 213V205.5H451.97V206.438C452.235 206.088 452.57 205.81 452.975 205.605C453.38 205.395 453.82 205.29 454.295 205.29C454.585 205.29 454.865 205.328 455.135 205.403L454.625 206.663C454.42 206.598 454.22 206.565 454.025 206.565C453.65 206.565 453.305 206.658 452.99 206.843C452.68 207.023 452.432 207.268 452.247 207.578C452.062 207.888 451.97 208.233 451.97 208.613V213H450.71ZM461.533 205.5H462.793V213.24C462.793 213.735 462.685 214.195 462.47 214.62C462.26 215.05 461.975 215.423 461.615 215.738C461.255 216.058 460.845 216.305 460.385 216.48C459.925 216.66 459.445 216.75 458.945 216.75C458.425 216.75 457.923 216.633 457.438 216.398C456.953 216.168 456.528 215.858 456.163 215.468C455.803 215.083 455.543 214.65 455.383 214.17L456.538 213.645C456.633 213.99 456.803 214.3 457.048 214.575C457.298 214.855 457.588 215.075 457.918 215.235C458.253 215.4 458.595 215.483 458.945 215.483C459.275 215.483 459.593 215.425 459.898 215.31C460.208 215.195 460.485 215.035 460.73 214.83C460.98 214.63 461.175 214.393 461.315 214.118C461.46 213.848 461.533 213.555 461.533 213.24V211.748C461.278 212.178 460.94 212.528 460.52 212.798C460.105 213.063 459.62 213.195 459.065 213.195C458.535 213.195 458.038 213.093 457.573 212.888C457.108 212.683 456.7 212.4 456.35 212.04C456 211.675 455.725 211.255 455.525 210.78C455.325 210.305 455.225 209.795 455.225 209.25C455.225 208.705 455.325 208.195 455.525 207.72C455.725 207.24 456 206.82 456.35 206.46C456.7 206.095 457.108 205.81 457.573 205.605C458.038 205.4 458.535 205.298 459.065 205.298C459.62 205.298 460.105 205.43 460.52 205.695C460.94 205.96 461.278 206.31 461.533 206.745V205.5ZM459.073 211.973C459.558 211.973 459.978 211.848 460.333 211.598C460.693 211.348 460.97 211.015 461.165 210.6C461.36 210.185 461.458 209.735 461.458 209.25C461.458 208.75 461.358 208.295 461.158 207.885C460.963 207.47 460.685 207.14 460.325 206.895C459.97 206.645 459.553 206.52 459.073 206.52C458.603 206.52 458.173 206.643 457.783 206.888C457.393 207.133 457.083 207.463 456.853 207.878C456.628 208.288 456.515 208.745 456.515 209.25C456.515 209.755 456.63 210.215 456.86 210.63C457.095 211.04 457.405 211.368 457.79 211.613C458.18 211.853 458.608 211.973 459.073 211.973ZM467.794 213.195C467.104 213.195 466.474 213.018 465.904 212.663C465.339 212.308 464.886 211.833 464.546 211.238C464.211 210.638 464.044 209.975 464.044 209.25C464.044 208.7 464.141 208.188 464.336 207.713C464.531 207.233 464.799 206.813 465.139 206.453C465.484 206.088 465.884 205.803 466.339 205.598C466.794 205.393 467.279 205.29 467.794 205.29C468.484 205.29 469.111 205.468 469.676 205.823C470.246 206.178 470.699 206.655 471.034 207.255C471.374 207.855 471.544 208.52 471.544 209.25C471.544 209.795 471.446 210.305 471.251 210.78C471.056 211.255 470.786 211.675 470.441 212.04C470.101 212.4 469.704 212.683 469.249 212.888C468.799 213.093 468.314 213.195 467.794 213.195ZM467.794 211.935C468.264 211.935 468.686 211.813 469.061 211.568C469.441 211.318 469.739 210.99 469.954 210.585C470.174 210.175 470.284 209.73 470.284 209.25C470.284 208.76 470.171 208.31 469.946 207.9C469.726 207.49 469.429 207.163 469.054 206.918C468.679 206.673 468.259 206.55 467.794 206.55C467.324 206.55 466.901 206.675 466.526 206.925C466.151 207.17 465.854 207.498 465.634 207.908C465.414 208.318 465.304 208.765 465.304 209.25C465.304 209.75 465.416 210.205 465.641 210.615C465.866 211.02 466.169 211.343 466.549 211.583C466.929 211.818 467.344 211.935 467.794 211.935ZM476.582 206.76H474.879L474.872 213H473.612L473.619 206.76H472.329V205.5H473.619L473.612 203.145H474.872L474.879 205.5H476.582V206.76ZM481.53 213V202.5H484.995C485.56 202.5 486.067 202.638 486.517 202.913C486.972 203.188 487.332 203.56 487.597 204.03C487.867 204.495 488.002 205.015 488.002 205.59C488.002 206.175 487.865 206.703 487.59 207.173C487.32 207.638 486.955 208.008 486.495 208.283C486.04 208.553 485.54 208.688 484.995 208.688H482.79V213H481.53ZM482.79 207.428H484.882C485.222 207.428 485.532 207.345 485.812 207.18C486.097 207.01 486.322 206.783 486.487 206.498C486.657 206.208 486.742 205.883 486.742 205.523C486.742 205.158 486.657 204.833 486.487 204.548C486.322 204.258 486.097 204.03 485.812 203.865C485.532 203.695 485.222 203.61 484.882 203.61H482.79V207.428ZM494.899 205.5H496.159V213H494.899L494.846 211.733C494.611 212.168 494.286 212.52 493.871 212.79C493.461 213.06 492.971 213.195 492.401 213.195C491.851 213.195 491.336 213.093 490.856 212.888C490.376 212.678 489.951 212.39 489.581 212.025C489.216 211.655 488.931 211.23 488.726 210.75C488.521 210.27 488.419 209.753 488.419 209.198C488.419 208.663 488.519 208.158 488.719 207.683C488.919 207.208 489.196 206.793 489.551 206.438C489.911 206.078 490.326 205.798 490.796 205.598C491.266 205.393 491.771 205.29 492.311 205.29C492.901 205.29 493.419 205.43 493.864 205.71C494.309 205.985 494.669 206.343 494.944 206.783L494.899 205.5ZM492.379 211.973C492.874 211.973 493.301 211.853 493.661 211.613C494.026 211.368 494.306 211.038 494.501 210.623C494.701 210.208 494.801 209.75 494.801 209.25C494.801 208.74 494.701 208.28 494.501 207.87C494.301 207.455 494.019 207.128 493.654 206.888C493.294 206.643 492.869 206.52 492.379 206.52C491.884 206.52 491.434 206.643 491.029 206.888C490.624 207.133 490.301 207.463 490.061 207.878C489.826 208.288 489.709 208.745 489.709 209.25C489.709 209.755 489.831 210.215 490.076 210.63C490.321 211.04 490.646 211.368 491.051 211.613C491.456 211.853 491.899 211.973 492.379 211.973ZM499.945 213.143C499.54 213.128 499.145 213.053 498.76 212.918C498.38 212.778 498.045 212.59 497.755 212.355C497.47 212.115 497.263 211.84 497.133 211.53L498.213 211.065C498.288 211.235 498.423 211.395 498.618 211.545C498.813 211.695 499.038 211.815 499.293 211.905C499.548 211.995 499.805 212.04 500.065 212.04C500.34 212.04 500.598 211.998 500.838 211.913C501.078 211.828 501.273 211.703 501.423 211.538C501.578 211.368 501.655 211.165 501.655 210.93C501.655 210.68 501.57 210.485 501.4 210.345C501.235 210.2 501.025 210.088 500.77 210.008C500.52 209.923 500.265 209.843 500.005 209.768C499.49 209.638 499.03 209.483 498.625 209.303C498.22 209.118 497.9 208.885 497.665 208.605C497.435 208.32 497.32 207.958 497.32 207.518C497.32 207.053 497.448 206.65 497.703 206.31C497.963 205.97 498.303 205.708 498.723 205.523C499.143 205.338 499.593 205.245 500.073 205.245C500.678 205.245 501.23 205.375 501.73 205.635C502.23 205.895 502.603 206.248 502.848 206.693L501.835 207.285C501.75 207.105 501.62 206.948 501.445 206.813C501.27 206.673 501.07 206.563 500.845 206.483C500.62 206.403 500.39 206.36 500.155 206.355C499.865 206.345 499.593 206.383 499.338 206.468C499.088 206.553 498.885 206.683 498.73 206.858C498.58 207.028 498.505 207.24 498.505 207.495C498.505 207.745 498.585 207.935 498.745 208.065C498.91 208.195 499.123 208.3 499.383 208.38C499.648 208.455 499.935 208.543 500.245 208.643C500.7 208.788 501.125 208.955 501.52 209.145C501.915 209.335 502.233 209.573 502.473 209.858C502.718 210.143 502.838 210.495 502.833 210.915C502.833 211.375 502.695 211.778 502.42 212.123C502.145 212.463 501.788 212.723 501.348 212.903C500.913 213.083 500.445 213.163 499.945 213.143ZM506.405 213.143C506 213.128 505.605 213.053 505.22 212.918C504.84 212.778 504.505 212.59 504.215 212.355C503.93 212.115 503.723 211.84 503.593 211.53L504.673 211.065C504.748 211.235 504.883 211.395 505.078 211.545C505.273 211.695 505.498 211.815 505.753 211.905C506.008 211.995 506.265 212.04 506.525 212.04C506.8 212.04 507.058 211.998 507.298 211.913C507.538 211.828 507.733 211.703 507.883 211.538C508.038 211.368 508.115 211.165 508.115 210.93C508.115 210.68 508.03 210.485 507.86 210.345C507.695 210.2 507.485 210.088 507.23 210.008C506.98 209.923 506.725 209.843 506.465 209.768C505.95 209.638 505.49 209.483 505.085 209.303C504.68 209.118 504.36 208.885 504.125 208.605C503.895 208.32 503.78 207.958 503.78 207.518C503.78 207.053 503.908 206.65 504.163 206.31C504.423 205.97 504.763 205.708 505.183 205.523C505.603 205.338 506.053 205.245 506.533 205.245C507.138 205.245 507.69 205.375 508.19 205.635C508.69 205.895 509.063 206.248 509.308 206.693L508.295 207.285C508.21 207.105 508.08 206.948 507.905 206.813C507.73 206.673 507.53 206.563 507.305 206.483C507.08 206.403 506.85 206.36 506.615 206.355C506.325 206.345 506.053 206.383 505.798 206.468C505.548 206.553 505.345 206.683 505.19 206.858C505.04 207.028 504.965 207.24 504.965 207.495C504.965 207.745 505.045 207.935 505.205 208.065C505.37 208.195 505.583 208.3 505.843 208.38C506.108 208.455 506.395 208.543 506.705 208.643C507.16 208.788 507.585 208.955 507.98 209.145C508.375 209.335 508.693 209.573 508.933 209.858C509.178 210.143 509.298 210.495 509.293 210.915C509.293 211.375 509.155 211.778 508.88 212.123C508.605 212.463 508.248 212.723 507.808 212.903C507.373 213.083 506.905 213.163 506.405 213.143ZM513.739 213H512.464L509.952 205.5H511.182L513.117 211.223L515.029 205.5H516.327L518.247 211.223L520.159 205.5H521.404L518.892 213H517.609L515.667 207.225L513.739 213ZM525.626 213.195C524.936 213.195 524.306 213.018 523.736 212.663C523.171 212.308 522.718 211.833 522.378 211.238C522.043 210.638 521.876 209.975 521.876 209.25C521.876 208.7 521.973 208.188 522.168 207.713C522.363 207.233 522.631 206.813 522.971 206.453C523.316 206.088 523.716 205.803 524.171 205.598C524.626 205.393 525.111 205.29 525.626 205.29C526.316 205.29 526.943 205.468 527.508 205.823C528.078 206.178 528.531 206.655 528.866 207.255C529.206 207.855 529.376 208.52 529.376 209.25C529.376 209.795 529.278 210.305 529.083 210.78C528.888 211.255 528.618 211.675 528.273 212.04C527.933 212.4 527.536 212.683 527.081 212.888C526.631 213.093 526.146 213.195 525.626 213.195ZM525.626 211.935C526.096 211.935 526.518 211.813 526.893 211.568C527.273 211.318 527.571 210.99 527.786 210.585C528.006 210.175 528.116 209.73 528.116 209.25C528.116 208.76 528.003 208.31 527.778 207.9C527.558 207.49 527.261 207.163 526.886 206.918C526.511 206.673 526.091 206.55 525.626 206.55C525.156 206.55 524.733 206.675 524.358 206.925C523.983 207.17 523.686 207.498 523.466 207.908C523.246 208.318 523.136 208.765 523.136 209.25C523.136 209.75 523.248 210.205 523.473 210.615C523.698 211.02 524.001 211.343 524.381 211.583C524.761 211.818 525.176 211.935 525.626 211.935ZM530.617 213V205.5H531.877V206.438C532.142 206.088 532.477 205.81 532.882 205.605C533.287 205.395 533.727 205.29 534.202 205.29C534.492 205.29 534.772 205.328 535.042 205.403L534.532 206.663C534.327 206.598 534.127 206.565 533.932 206.565C533.557 206.565 533.212 206.658 532.897 206.843C532.587 207.023 532.339 207.268 532.154 207.578C531.969 207.888 531.877 208.233 531.877 208.613V213H530.617ZM541.62 201.75H542.88V213H541.62V211.725C541.365 212.165 541.023 212.52 540.593 212.79C540.163 213.06 539.658 213.195 539.078 213.195C538.533 213.195 538.023 213.093 537.548 212.888C537.073 212.683 536.653 212.4 536.288 212.04C535.928 211.675 535.645 211.255 535.44 210.78C535.235 210.305 535.133 209.795 535.133 209.25C535.133 208.705 535.235 208.195 535.44 207.72C535.645 207.24 535.928 206.82 536.288 206.46C536.653 206.095 537.073 205.81 537.548 205.605C538.023 205.4 538.533 205.298 539.078 205.298C539.658 205.298 540.163 205.433 540.593 205.703C541.023 205.973 541.365 206.328 541.62 206.768V201.75ZM539.093 211.973C539.588 211.973 540.015 211.853 540.375 211.613C540.74 211.368 541.02 211.038 541.215 210.623C541.415 210.208 541.515 209.75 541.515 209.25C541.515 208.74 541.415 208.28 541.215 207.87C541.015 207.455 540.733 207.128 540.368 206.888C540.008 206.643 539.583 206.52 539.093 206.52C538.598 206.52 538.148 206.643 537.743 206.888C537.343 207.133 537.023 207.463 536.783 207.878C536.543 208.288 536.423 208.745 536.423 209.25C536.423 209.755 536.545 210.215 536.79 210.63C537.035 211.04 537.36 211.368 537.765 211.613C538.17 211.853 538.613 211.973 539.093 211.973ZM546.967 209.498C546.967 208.983 547.094 208.51 547.349 208.08C547.609 207.65 547.967 207.31 548.422 207.06C548.712 206.91 548.939 206.688 549.104 206.393C549.269 206.093 549.352 205.765 549.352 205.41C549.352 205.065 549.267 204.753 549.097 204.473C548.932 204.193 548.707 203.97 548.422 203.805C548.142 203.64 547.832 203.558 547.492 203.558C547.152 203.558 546.839 203.64 546.554 203.805C546.274 203.97 546.052 204.193 545.887 204.473C545.722 204.753 545.639 205.065 545.639 205.41H544.379C544.379 204.835 544.519 204.313 544.799 203.843C545.079 203.373 545.454 202.998 545.924 202.718C546.399 202.438 546.922 202.298 547.492 202.298C548.067 202.298 548.589 202.438 549.059 202.718C549.534 202.998 549.912 203.373 550.192 203.843C550.472 204.313 550.612 204.835 550.612 205.41C550.612 205.995 550.469 206.535 550.184 207.03C549.899 207.525 549.509 207.908 549.014 208.178C548.769 208.308 548.577 208.49 548.437 208.725C548.297 208.955 548.227 209.213 548.227 209.498H546.967ZM547.597 213.195C547.402 213.195 547.237 213.128 547.102 212.993C546.967 212.853 546.899 212.688 546.899 212.498C546.899 212.308 546.967 212.148 547.102 212.018C547.237 211.883 547.402 211.815 547.597 211.815C547.787 211.815 547.949 211.883 548.084 212.018C548.219 212.148 548.287 212.308 548.287 212.498C548.287 212.688 548.219 212.853 548.084 212.993C547.949 213.128 547.787 213.195 547.597 213.195Z" fill="black"/>
<path d="M258.486 320.91C255.513 325.692 253.032 330.294 250.483 335.076C247.935 339.813 245.632 344.663 243.375 349.579C238.926 359.412 234.947 369.56 231.974 380.403C231.572 381.728 231.281 383.142 230.946 384.534L230.454 386.622L230.208 387.655L229.918 389.361C229.269 393.918 229.851 397.645 230.611 400.923C232.22 407.456 234.791 412.687 237.563 417.671C243.218 427.526 249.813 435.923 257.435 443.87L266.846 436.709C262.197 427.863 257.614 418.591 254.239 409.678C252.607 405.256 251.221 400.743 250.819 397.039C250.617 395.221 250.751 393.649 250.997 393.065L251.892 390.326C252.249 389.204 252.584 388.081 253.032 386.936C256.25 377.866 260.341 368.774 264.812 359.816C269.216 350.881 274.089 341.789 278.873 333.28L258.463 320.91H258.486Z" fill="#FFBE9D"/>
<path d="M264.454 433.476L274.715 438.954L262.912 452.828C262.912 452.828 255.535 447.822 255.222 440.188L264.454 433.498V433.476Z" fill="#FFBE9D"/>
<path d="M288.529 447.507L275.899 457.587L262.934 452.828L274.737 438.953L288.529 447.507Z" fill="#FFBE9D"/>
<path d="M331.717 247.453C331.963 248.71 332.835 249.586 333.639 249.406C334.444 249.249 334.914 248.104 334.645 246.847C334.4 245.59 333.528 244.714 332.723 244.894C331.918 245.051 331.449 246.196 331.717 247.453Z" fill="#263238"/>
<path d="M332.723 249.608C332.723 249.608 337.015 256.231 340.815 259.082C339.027 261.596 335.115 261.417 335.115 261.417L332.723 249.631V249.608Z" fill="#FFA171"/>
<path d="M336.747 293.655L336.657 278.951L317.254 281.308C317.254 281.308 317.59 293.97 328.431 297.674L336.769 293.655H336.747Z" fill="#FFBE9D"/>
<path d="M331.158 268.332L317.5 272.283L317.254 281.286L336.657 278.928L331.158 268.332Z" fill="#FFBE9D"/>
<path opacity="0.2" d="M317.5 272.283L331.158 268.332L333.818 273.45C333.483 282.139 328.208 289.278 321.211 292.488C317.411 287.482 317.254 281.286 317.254 281.286L317.5 272.283Z" fill="black"/>
<path d="M325.771 241.459C325.592 241.459 325.413 241.391 325.257 241.257C324.944 240.987 324.944 240.493 325.212 240.202C328.006 237.171 331.404 237.71 331.538 237.732C331.94 237.799 332.209 238.181 332.142 238.585C332.075 238.989 331.672 239.259 331.292 239.191C331.18 239.191 328.52 238.787 326.285 241.212C326.128 241.369 325.95 241.459 325.748 241.459H325.771Z" fill="#263238"/>
<path d="M297.203 270.173C299.461 281.735 300.824 297.742 292.777 305.442C292.777 305.442 295.929 317.161 317.299 317.161C340.793 317.161 328.61 306.879 328.61 306.879C318.841 303.826 318.931 292.668 321.166 283.688L297.225 270.173H297.203Z" fill="#FFBE9D"/>
<path d="M288.373 313.165C286.271 310.179 286.361 300.772 288.596 299.134C292.195 296.462 307.642 295.833 328.431 300.638C326.195 309.753 330.979 314.512 330.979 314.512L288.373 313.165Z" fill="#407BFF"/>
<path d="M218.495 846.134C220.082 846.47 221.647 846.56 222.407 845.909C222.72 845.64 223.055 845.123 222.764 844.18C222.608 843.687 222.295 843.305 221.803 843.08C219.679 842.07 214.806 844.068 214.583 844.136C214.449 844.181 214.359 844.315 214.359 844.472C214.359 844.63 214.426 844.764 214.56 844.809C215.298 845.168 216.885 845.774 218.472 846.111L218.495 846.134ZM221.043 843.619C221.199 843.664 221.356 843.709 221.49 843.754C221.781 843.889 221.96 844.113 222.049 844.383C222.25 845.056 222.004 845.258 221.915 845.348C221.065 846.066 217.936 845.415 215.723 844.517C217.22 843.978 219.657 843.305 221.043 843.619Z" fill="#407BFF"/>
<path d="M214.672 844.876C214.672 844.876 214.784 844.876 214.851 844.876C216.64 844.36 220.44 841.644 220.484 839.848C220.484 839.533 220.373 838.927 219.523 838.635C218.964 838.433 218.428 838.478 217.869 838.77C215.768 839.848 214.449 844.225 214.382 844.405C214.337 844.54 214.382 844.674 214.471 844.787C214.516 844.831 214.583 844.876 214.65 844.899L214.672 844.876ZM219.121 839.286C219.121 839.286 219.233 839.309 219.277 839.331C219.747 839.488 219.724 839.713 219.724 839.825C219.702 840.88 217.198 843.013 215.343 843.866C215.812 842.609 216.863 840.117 218.204 839.421C218.517 839.264 218.808 839.219 219.098 839.286H219.121Z" fill="#407BFF"/>
<path d="M334.601 848.783C336.613 848.783 338.557 848.513 339.228 847.593C339.452 847.279 339.63 846.74 339.206 845.954C338.96 845.528 338.557 845.236 338.021 845.079C335.406 844.36 329.906 847.503 329.683 847.638C329.549 847.705 329.482 847.862 329.504 848.02C329.526 848.177 329.638 848.289 329.795 848.334C330.801 848.536 332.745 848.783 334.623 848.783H334.601ZM337.104 845.73C337.373 845.73 337.619 845.752 337.82 845.819C338.155 845.909 338.401 846.089 338.557 846.336C338.826 846.807 338.714 847.032 338.624 847.166C337.887 848.177 333.908 848.222 331.002 847.795C332.455 847.054 335.271 845.73 337.104 845.73Z" fill="#407BFF"/>
<path d="M329.839 848.356C329.839 848.356 329.951 848.356 329.996 848.334C331.896 847.481 335.651 844.068 335.361 842.272C335.293 841.846 335.003 841.329 333.975 841.217C333.215 841.15 332.522 841.352 331.918 841.868C329.929 843.507 329.504 847.772 329.481 847.952C329.481 848.087 329.526 848.221 329.638 848.289C329.705 848.334 329.772 848.356 329.861 848.356H329.839ZM333.684 841.958C333.684 841.958 333.84 841.958 333.907 841.958C334.578 842.025 334.623 842.295 334.623 842.384C334.802 843.462 332.231 846.134 330.309 847.301C330.51 846.066 331.069 843.507 332.387 842.429C332.79 842.093 333.215 841.935 333.684 841.935V841.958Z" fill="#407BFF"/>
<path d="M312.56 847.974H328.275L329.839 811.403H314.125L312.56 847.974Z" fill="#FFBE9D"/>
<path d="M197.147 840.678L212.527 844.023L227.951 809.944L212.571 806.621L197.147 840.678Z" fill="#FFBE9D"/>
<path d="M214.002 842.474L196.744 838.725C196.118 838.59 195.47 838.905 195.202 839.488L189.211 852.554C188.585 853.901 189.412 855.495 190.865 855.787C196.923 856.999 199.919 857.269 207.519 858.93C212.191 859.941 222.742 862.522 229.18 863.937C235.484 865.306 237.853 859.11 235.327 857.965C224.038 852.779 219.344 848.221 216.282 843.978C215.723 843.215 214.918 842.676 214.002 842.497V842.474Z" fill="#263238"/>
<path d="M328.163 846.156H310.995C310.347 846.156 309.788 846.605 309.654 847.234L306.547 861.265C306.234 862.724 307.329 864.094 308.804 864.071C314.996 863.959 323.938 863.6 331.739 863.6C340.837 863.6 348.706 864.094 359.369 864.094C365.829 864.094 367.617 857.538 364.913 856.955C352.618 854.261 342.559 853.969 331.941 847.391C330.778 846.672 329.504 846.156 328.163 846.156Z" fill="#263238"/>
<path d="M264.611 309.011C249.88 312.401 237.719 350.185 237.719 350.185L267.316 372.837C267.316 372.837 278.18 362.555 283.008 343.652C288.082 323.851 279.677 305.532 264.611 309.011Z" fill="url(#paint5_linear_152_9940)"/>
<path d="M264.611 309.011C249.88 312.401 237.719 350.185 237.719 350.185L267.316 372.837C267.316 372.837 278.18 362.555 283.008 343.652C288.082 323.851 279.677 305.532 264.611 309.011Z" fill="url(#paint6_linear_152_9940)"/>
<path d="M342.111 354.091C345.8 358.088 349.466 361.612 353.244 365.272C355.121 367.09 357.066 368.864 359.033 370.615L362.006 373.219L362.744 373.87C363.102 374.184 363.549 374.544 364.018 374.925C365.002 375.666 366.075 376.497 368.333 377.485C369.517 377.956 371.06 378.562 373.764 378.607C375.039 378.607 376.782 378.405 378.459 377.777C380.158 377.148 381.812 376.048 382.93 374.925C385.277 372.568 385.97 370.503 386.439 369.111C386.864 367.674 386.998 366.664 387.087 365.766C387.221 364.014 387.132 362.847 387.043 361.747C386.931 360.669 386.797 359.726 386.618 358.851C385.97 355.394 385.031 352.587 384.025 349.803C382.997 347.042 381.879 344.371 380.56 341.699C379.152 338.848 377.766 336.76 376.402 334.38C370.881 325.108 364.398 316.644 357.513 308.652C350.472 300.727 343.095 293.476 334.601 286.831L326.374 295.339C332.164 303.107 337.842 311.436 343.095 319.63C348.348 327.892 353.199 336.311 357.401 344.887C358.363 346.997 359.547 349.31 360.218 351.083C361 353.014 361.716 355.102 362.319 357.145C362.901 359.165 363.37 361.276 363.593 362.825C363.638 363.206 363.661 363.521 363.661 363.723C363.661 363.902 363.616 363.992 363.661 363.521C363.683 363.251 363.705 362.87 363.951 362.061C364.219 361.276 364.644 359.794 366.522 357.886C367.438 356.988 368.802 356.045 370.21 355.551C371.574 355.012 373.004 354.855 373.966 354.855C376.045 354.9 376.961 355.326 377.565 355.551C378.66 356.022 378.682 356.157 378.682 356.112L377.833 355.326L375.15 352.857L369.808 347.828C366.276 344.483 362.722 340.913 359.346 337.591L342.134 354.159L342.111 354.091Z" fill="#FFBE9D"/>
<path style="mix-blend-mode:multiply" opacity="0.33" d="M277.241 336.805C269.238 344.752 266.623 359.255 265.997 371.85L267.293 372.86C267.293 372.86 278.157 362.555 283.008 343.675C283.299 342.485 283.567 341.317 283.768 340.15L277.218 336.827L277.241 336.805Z" fill="url(#paint7_linear_152_9940)"/>
<path d="M357.737 324.839C360.956 341.901 362.968 376.924 353.624 446.317H269.529C268.948 433.341 277.062 370.099 264.611 309.012C264.611 309.012 279.029 306.115 292.755 305.442C303.507 304.926 319.065 304.589 328.498 305.442C332.433 305.801 336.322 306.385 339.765 306.991C348.863 308.607 356.016 315.724 357.715 324.839H357.737Z" fill="#407BFF"/>
<path d="M357.737 324.839C360.956 341.901 362.968 376.924 353.624 446.317H269.529C268.948 433.341 277.062 370.099 264.611 309.012C264.611 309.012 279.029 306.115 292.755 305.442C303.507 304.926 319.065 304.589 328.498 305.442C332.433 305.801 336.322 306.385 339.765 306.991C348.863 308.607 356.016 315.724 357.715 324.839H357.737Z" fill="url(#paint8_linear_152_9940)"/>
<path style="mix-blend-mode:multiply" opacity="0.33" d="M344.861 350.051L360.062 346.391C360.531 355.641 360.576 367.09 359.883 381.256C352.886 373.264 343.967 360.804 344.861 350.051Z" fill="url(#paint9_linear_152_9940)"/>
<path opacity="0.2" d="M329.839 811.426L329.035 830.284H313.297L314.102 811.426H329.839Z" fill="black"/>
<path opacity="0.2" d="M212.571 806.621L227.951 809.966L219.993 827.522L204.613 824.177L212.571 806.621Z" fill="black"/>
<path d="M289.737 253.268C293.783 268.399 295.37 277.469 304.669 283.755C318.663 293.229 336.076 282.363 336.635 266.311C337.127 251.876 330.443 229.538 314.259 226.484C298.321 223.476 285.691 238.114 289.737 253.245V253.268Z" fill="#FFBE9D"/>
<path d="M325.011 253.851C325.748 251.831 329.235 236.183 325.972 232.119C322.708 228.056 285.489 230.975 279.99 236.407C270.87 245.432 277.196 253.492 287.188 263.864C294.699 271.677 294.989 280.477 298.79 281.779C305.429 284.047 315.734 281.914 317.813 274.797C319.869 267.681 325.033 253.851 325.033 253.851H325.011Z" fill="url(#paint10_linear_152_9940)"/>
<path d="M284.506 218.627C297.672 212.992 322.328 219.233 335.629 216C336.098 222.937 331.94 234.028 318.618 237.014C318.618 237.014 299.706 240.718 285.087 240.112C270.467 239.506 273.306 223.386 284.483 218.627H284.506Z" fill="url(#paint11_linear_152_9940)"/>
<path d="M282.449 236.901C282.449 236.901 274.312 237.822 268.545 234.23C266.086 240.201 279.588 241.84 282.449 236.901Z" fill="url(#paint12_linear_152_9940)"/>
<path d="M317.857 254.48C318.103 258.588 320.003 262.427 322.284 264.964C325.704 268.758 329.28 266.401 329.906 261.776C330.443 257.623 329.325 250.641 325.145 248.553C321.009 246.487 317.612 249.81 317.88 254.502L317.857 254.48Z" fill="#FFBE9D"/>
<path d="M323.804 446.317C323.804 446.317 305.965 566.987 296.174 612.202C285.445 661.705 227.928 825.502 227.928 825.502L199.785 819.373C199.785 819.373 239.999 685.884 249.008 616.67C255.915 563.508 269.551 446.295 269.551 446.295H323.826L323.804 446.317Z" fill="#274292"/>
<path d="M234.656 816.073C234.768 816.095 229.403 826.288 229.403 826.288L197.728 819.395L200.388 809.832L234.634 816.05L234.656 816.073Z" fill="#263238"/>
<g style="mix-blend-mode:multiply" opacity="0.3">
<path d="M312.515 489.31C291.882 493.373 294.073 570.647 296.554 610.384C302.5 582.299 311.218 528.238 317.165 489.871C315.801 489.175 314.259 488.973 312.515 489.31Z" fill="#1E2A4C"/>
</g>
<path d="M353.646 446.317C353.646 446.317 355.814 564.383 354.093 612.539C352.305 662.625 334.891 826.624 334.891 826.624H308.246C308.246 826.624 307.262 665.544 306.077 616.355C304.781 562.722 298.343 446.317 298.343 446.317H353.624H353.646Z" fill="#274292"/>
<path d="M340.01 815.96C340.122 815.96 338.513 827.073 338.513 827.073H306.122L305.25 817.173L340.033 815.983L340.01 815.96Z" fill="#263238"/>
<path d="M324.787 330.025C317.254 350.432 361.537 374.476 361.537 374.476L380.716 349.714C380.716 349.714 367.93 324.143 352.215 312.626C332.812 298.393 330.51 314.512 324.787 330.047V330.025Z" fill="url(#paint13_linear_152_9940)"/>
<path d="M324.787 330.025C317.254 350.432 361.537 374.476 361.537 374.476L380.716 349.714C380.716 349.714 367.93 324.143 352.215 312.626C332.812 298.393 330.51 314.512 324.787 330.047V330.025Z" fill="url(#paint14_linear_152_9940)"/>
</g>
<path d="M88.623 -63.9999H87.0664V102.576H88.623V-63.9999Z" fill="#C7C7C7"/>
<path d="M145.69 158.335L141.035 168.562H34.6388L30 158.335L75.2983 126.984H100.391L145.69 158.335Z" fill="#EBEBEB"/>
<path d="M103.536 96.7858L100.391 126.985H75.2982L72.1538 96.7858H103.536Z" fill="#DBDBDB"/>
<path d="M145.674 158.351L141.02 168.578H34.6232L30 158.351H145.674Z" fill="#DBDBDB"/>
<path d="M199.331 -63.9999H197.774V69.5911H199.331V-63.9999Z" fill="#C7C7C7"/>
<path d="M256.398 125.35L251.744 135.577H145.347L140.708 125.35L186.007 93.9991H211.1L256.398 125.35Z" fill="#EBEBEB"/>
<path d="M214.244 63.785L211.1 93.9995H186.007L182.862 63.785H214.244Z" fill="#DBDBDB"/>
<path d="M256.398 125.35L251.744 135.577H145.347L140.708 125.35H256.398Z" fill="#DBDBDB"/>
<defs>
<linearGradient id="paint0_linear_152_9940" x1="-1.02309" y1="637.632" x2="-0.295416" y2="770.433" gradientUnits="userSpaceOnUse">
<stop stop-color="#6AD0FB"/>
<stop offset="0.23" stop-color="#69CDF9"/>
<stop offset="0.39" stop-color="#69C3F5"/>
<stop offset="0.53" stop-color="#68B4ED"/>
<stop offset="0.65" stop-color="#679EE3"/>
<stop offset="0.77" stop-color="#6682D6"/>
<stop offset="0.88" stop-color="#645FC5"/>
<stop offset="0.99" stop-color="#6336B2"/>
</linearGradient>
<linearGradient id="paint1_linear_152_9940" x1="74.086" y1="648.058" x2="74.6264" y2="772.176" gradientUnits="userSpaceOnUse">
<stop stop-color="#6AD0FB"/>
<stop offset="0.23" stop-color="#69CDF9"/>
<stop offset="0.39" stop-color="#69C3F5"/>
<stop offset="0.53" stop-color="#68B4ED"/>
<stop offset="0.65" stop-color="#679EE3"/>
<stop offset="0.77" stop-color="#6682D6"/>
<stop offset="0.88" stop-color="#645FC5"/>
<stop offset="0.99" stop-color="#6336B2"/>
</linearGradient>
<linearGradient id="paint2_linear_152_9940" x1="-11.041" y1="724.72" x2="-10.891" y2="786.964" gradientUnits="userSpaceOnUse">
<stop stop-color="#6AD0FB"/>
<stop offset="0.23" stop-color="#69CDF9"/>
<stop offset="0.39" stop-color="#69C3F5"/>
<stop offset="0.53" stop-color="#68B4ED"/>
<stop offset="0.65" stop-color="#679EE3"/>
<stop offset="0.77" stop-color="#6682D6"/>
<stop offset="0.88" stop-color="#645FC5"/>
<stop offset="0.99" stop-color="#6336B2"/>
</linearGradient>
<linearGradient id="paint3_linear_152_9940" x1="85.0412" y1="734.798" x2="85.1705" y2="785.221" gradientUnits="userSpaceOnUse">
<stop stop-color="#6AD0FB"/>
<stop offset="0.23" stop-color="#69CDF9"/>
<stop offset="0.39" stop-color="#69C3F5"/>
<stop offset="0.53" stop-color="#68B4ED"/>
<stop offset="0.65" stop-color="#679EE3"/>
<stop offset="0.77" stop-color="#6682D6"/>
<stop offset="0.88" stop-color="#645FC5"/>
<stop offset="0.99" stop-color="#6336B2"/>
</linearGradient>
<linearGradient id="paint4_linear_152_9940" x1="463.377" y1="301.216" x2="515.556" y2="292.171" gradientUnits="userSpaceOnUse">
<stop stop-color="#71CEF9"/>
<stop offset="1" stop-color="#667ED4"/>
</linearGradient>
<linearGradient id="paint5_linear_152_9940" x1="286.542" y1="337.051" x2="221.545" y2="344.196" gradientUnits="userSpaceOnUse">
<stop stop-color="#556DB3"/>
<stop offset="1" stop-color="#6077B9"/>
</linearGradient>
<linearGradient id="paint6_linear_152_9940" x1="286.542" y1="337.051" x2="221.545" y2="344.196" gradientUnits="userSpaceOnUse">
<stop stop-color="#4A69BF"/>
<stop offset="1" stop-color="#6077B9"/>
</linearGradient>
<linearGradient id="paint7_linear_152_9940" x1="287.448" y1="341.63" x2="239.514" y2="354.576" gradientUnits="userSpaceOnUse">
<stop stop-color="#8091C1"/>
<stop offset="1" stop-color="#687EB9"/>
</linearGradient>
<linearGradient id="paint8_linear_152_9940" x1="364.629" y1="367.565" x2="231.264" y2="381.213" gradientUnits="userSpaceOnUse">
<stop stop-color="#4A69BF"/>
<stop offset="1" stop-color="#6077B9"/>
</linearGradient>
<linearGradient id="paint9_linear_152_9940" x1="363.642" y1="351.056" x2="321.029" y2="361.512" gradientUnits="userSpaceOnUse">
<stop stop-color="#8091C1"/>
<stop offset="1" stop-color="#687EB9"/>
</linearGradient>
<linearGradient id="paint10_linear_152_9940" x1="333.279" y1="270.817" x2="273.28" y2="247.098" gradientUnits="userSpaceOnUse">
<stop stop-color="#27103E"/>
<stop offset="1" stop-color="#573962"/>
</linearGradient>
<linearGradient id="paint11_linear_152_9940" x1="342.61" y1="234.723" x2="302.144" y2="194.133" gradientUnits="userSpaceOnUse">
<stop stop-color="#27103E"/>
<stop offset="1" stop-color="#573962"/>
</linearGradient>
<linearGradient id="paint12_linear_152_9940" x1="284.078" y1="238.554" x2="274.732" y2="229.039" gradientUnits="userSpaceOnUse">
<stop stop-color="#27103E"/>
<stop offset="1" stop-color="#573962"/>
</linearGradient>
<linearGradient id="paint13_linear_152_9940" x1="383.208" y1="336.965" x2="304.605" y2="346.974" gradientUnits="userSpaceOnUse">
<stop stop-color="#556DB3"/>
<stop offset="1" stop-color="#6077B9"/>
</linearGradient>
<linearGradient id="paint14_linear_152_9940" x1="383.208" y1="336.965" x2="304.605" y2="346.974" gradientUnits="userSpaceOnUse">
<stop stop-color="#4A69BF"/>
<stop offset="1" stop-color="#6077B9"/>
</linearGradient>
<clipPath id="clip0_152_9940">
<rect width="856" height="822" fill="white" transform="matrix(-1 0 0 1 856 64.0001)"/>
</clipPath>
</defs>
</svg>
